<mxfile host="app.diagrams.net" modified="2023-11-02T00:10:10.706Z" agent="Mozilla/5.0 (Windows NT 10.0; Win64; x64) AppleWebKit/537.36 (KHTML, like Gecko) Chrome/119.0.0.0 Safari/537.36" etag="CwrNFSL3xqc4szIUKv3l" version="22.0.8" type="google">
  <diagram name="PÃ¡gina-1" id="LJyh0YPA2y4PN-ukz0LN">
    <mxGraphModel grid="1" page="1" gridSize="10" guides="1" tooltips="1" connect="1" arrows="1" fold="1" pageScale="1" pageWidth="827" pageHeight="1169" math="0" shadow="0">
      <root>
        <mxCell id="0" />
        <mxCell id="1" parent="0" />
        <mxCell id="gS1rTH0d1QX9LJS4eR5o-1" value="Cliente" style="shape=umlActor;verticalLabelPosition=bottom;verticalAlign=top;html=1;outlineConnect=0;" vertex="1" parent="1">
          <mxGeometry x="-650" y="40" width="30" height="60" as="geometry" />
        </mxCell>
        <mxCell id="gS1rTH0d1QX9LJS4eR5o-2" value="Gerente" style="shape=umlActor;verticalLabelPosition=bottom;verticalAlign=top;html=1;outlineConnect=0;" vertex="1" parent="1">
          <mxGeometry x="-305" y="600" width="30" height="60" as="geometry" />
        </mxCell>
        <mxCell id="gS1rTH0d1QX9LJS4eR5o-3" value="Recpicionista" style="shape=umlActor;verticalLabelPosition=bottom;verticalAlign=top;html=1;outlineConnect=0;" vertex="1" parent="1">
          <mxGeometry x="-320" y="100" width="30" height="60" as="geometry" />
        </mxCell>
        <mxCell id="gS1rTH0d1QX9LJS4eR5o-5" value="Verificar disponibilidade" style="rounded=1;whiteSpace=wrap;html=1;" vertex="1" parent="1">
          <mxGeometry x="-550" y="20" width="120" height="60" as="geometry" />
        </mxCell>
        <mxCell id="gS1rTH0d1QX9LJS4eR5o-6" value="Cancelar Reserva" style="rounded=1;whiteSpace=wrap;html=1;" vertex="1" parent="1">
          <mxGeometry x="-550" y="160" width="120" height="60" as="geometry" />
        </mxCell>
        <mxCell id="gS1rTH0d1QX9LJS4eR5o-7" value="Efetuar Reserva&amp;nbsp;" style="rounded=1;whiteSpace=wrap;html=1;" vertex="1" parent="1">
          <mxGeometry x="-550" y="90" width="120" height="60" as="geometry" />
        </mxCell>
        <mxCell id="gS1rTH0d1QX9LJS4eR5o-12" value="" style="endArrow=classic;html=1;rounded=0;exitX=0.5;exitY=0.5;exitDx=0;exitDy=0;exitPerimeter=0;" edge="1" parent="1" source="gS1rTH0d1QX9LJS4eR5o-1" target="gS1rTH0d1QX9LJS4eR5o-7">
          <mxGeometry width="50" height="50" relative="1" as="geometry">
            <mxPoint x="20" y="490" as="sourcePoint" />
            <mxPoint x="-140" y="230" as="targetPoint" />
          </mxGeometry>
        </mxCell>
        <mxCell id="gS1rTH0d1QX9LJS4eR5o-13" value="" style="endArrow=classic;html=1;rounded=0;entryX=0;entryY=0.5;entryDx=0;entryDy=0;exitX=0.5;exitY=0.5;exitDx=0;exitDy=0;exitPerimeter=0;" edge="1" parent="1" source="gS1rTH0d1QX9LJS4eR5o-1" target="gS1rTH0d1QX9LJS4eR5o-6">
          <mxGeometry width="50" height="50" relative="1" as="geometry">
            <mxPoint x="70" y="120" as="sourcePoint" />
            <mxPoint x="430" y="380" as="targetPoint" />
          </mxGeometry>
        </mxCell>
        <mxCell id="gS1rTH0d1QX9LJS4eR5o-17" value="Registrar Check-out" style="rounded=1;whiteSpace=wrap;html=1;" vertex="1" parent="1">
          <mxGeometry x="-200" y="190" width="120" height="60" as="geometry" />
        </mxCell>
        <mxCell id="gS1rTH0d1QX9LJS4eR5o-18" value="Registrar Check-In" style="rounded=1;whiteSpace=wrap;html=1;" vertex="1" parent="1">
          <mxGeometry x="-200" y="120" width="120" height="60" as="geometry" />
        </mxCell>
        <mxCell id="gS1rTH0d1QX9LJS4eR5o-19" value="" style="endArrow=classic;html=1;rounded=0;entryX=0;entryY=0.5;entryDx=0;entryDy=0;exitX=0.5;exitY=0.5;exitDx=0;exitDy=0;exitPerimeter=0;" edge="1" parent="1" source="gS1rTH0d1QX9LJS4eR5o-1" target="gS1rTH0d1QX9LJS4eR5o-5">
          <mxGeometry width="50" height="50" relative="1" as="geometry">
            <mxPoint x="380" y="430" as="sourcePoint" />
            <mxPoint x="430" y="380" as="targetPoint" />
          </mxGeometry>
        </mxCell>
        <mxCell id="gS1rTH0d1QX9LJS4eR5o-20" value="" style="endArrow=classic;html=1;rounded=0;entryX=0;entryY=0.5;entryDx=0;entryDy=0;exitX=0.5;exitY=0.5;exitDx=0;exitDy=0;exitPerimeter=0;" edge="1" parent="1" source="gS1rTH0d1QX9LJS4eR5o-3" target="gS1rTH0d1QX9LJS4eR5o-17">
          <mxGeometry width="50" height="50" relative="1" as="geometry">
            <mxPoint x="380" y="430" as="sourcePoint" />
            <mxPoint x="430" y="380" as="targetPoint" />
          </mxGeometry>
        </mxCell>
        <mxCell id="gS1rTH0d1QX9LJS4eR5o-21" value="" style="endArrow=classic;html=1;rounded=0;exitX=0.5;exitY=0.5;exitDx=0;exitDy=0;exitPerimeter=0;entryX=0;entryY=0.5;entryDx=0;entryDy=0;" edge="1" parent="1" source="gS1rTH0d1QX9LJS4eR5o-3" target="gS1rTH0d1QX9LJS4eR5o-18">
          <mxGeometry width="50" height="50" relative="1" as="geometry">
            <mxPoint x="380" y="430" as="sourcePoint" />
            <mxPoint x="770" y="160" as="targetPoint" />
          </mxGeometry>
        </mxCell>
        <mxCell id="gS1rTH0d1QX9LJS4eR5o-24" value="Emitir Fatura" style="rounded=1;whiteSpace=wrap;html=1;" vertex="1" parent="1">
          <mxGeometry x="-200" y="50" width="120" height="60" as="geometry" />
        </mxCell>
        <mxCell id="gS1rTH0d1QX9LJS4eR5o-27" value="" style="endArrow=classic;html=1;rounded=0;entryX=0;entryY=0.5;entryDx=0;entryDy=0;exitX=0.5;exitY=0.5;exitDx=0;exitDy=0;exitPerimeter=0;" edge="1" parent="1" source="gS1rTH0d1QX9LJS4eR5o-3" target="gS1rTH0d1QX9LJS4eR5o-24">
          <mxGeometry width="50" height="50" relative="1" as="geometry">
            <mxPoint x="380" y="430" as="sourcePoint" />
            <mxPoint x="430" y="380" as="targetPoint" />
          </mxGeometry>
        </mxCell>
        <mxCell id="gS1rTH0d1QX9LJS4eR5o-28" value="Gerenciar Reservas" style="rounded=1;whiteSpace=wrap;html=1;" vertex="1" parent="1">
          <mxGeometry x="-350" y="450" width="120" height="60" as="geometry" />
        </mxCell>
        <mxCell id="gS1rTH0d1QX9LJS4eR5o-29" value="" style="endArrow=classic;html=1;rounded=0;entryX=0.5;entryY=1;entryDx=0;entryDy=0;" edge="1" parent="1" source="gS1rTH0d1QX9LJS4eR5o-2" target="gS1rTH0d1QX9LJS4eR5o-28">
          <mxGeometry width="50" height="50" relative="1" as="geometry">
            <mxPoint x="300" y="465" as="sourcePoint" />
            <mxPoint x="350" y="415" as="targetPoint" />
          </mxGeometry>
        </mxCell>
      </root>
    </mxGraphModel>
  </diagram>
</mxfile>
